<svg width="391" height="157" viewBox="0 0 391 157" fill="none" xmlns="http://www.w3.org/2000/svg">
<rect x="1.5" y="1.5" width="388" height="154" fill="#181818" stroke="#2E93B0" stroke-width="3"/>
<path d="M71.8378 53.2V67.36L44.2378 81.4L71.8378 95.44V109.36L31.1578 87.4V75.16L71.8378 53.2ZM143.735 60.76H127.775V54.64C127.775 54 127.535 53.44 127.055 52.96C126.655 52.48 126.135 52.24 125.495 52.24H118.895C118.255 52.24 117.695 52.48 117.215 52.96C116.815 53.44 116.615 54 116.615 54.64V68.44C116.615 69.08 116.815 69.64 117.215 70.12C117.695 70.6 118.255 70.84 118.895 70.84H129.695C139.615 71 144.575 76.28 144.575 86.68V103.36C144.575 113.92 139.615 119.2 129.695 119.2H115.535C105.615 119.2 100.655 113.92 100.655 103.36V95.32H116.615V103.96C116.615 104.6 116.815 105.16 117.215 105.64C117.695 106.12 118.255 106.36 118.895 106.36H126.335C126.975 106.36 127.495 106.12 127.895 105.64C128.375 105.16 128.615 104.6 128.615 103.96V88.72C128.615 88.08 128.375 87.52 127.895 87.04C127.495 86.56 126.975 86.32 126.335 86.32H115.535C105.615 86.32 100.655 81.04 100.655 70.48V55C100.655 44.44 105.615 39.16 115.535 39.16H128.855C138.775 39.16 143.735 44.44 143.735 55V60.76ZM184.056 40.36C193.976 40.36 198.936 45.64 198.936 56.2V102.16C198.936 112.72 193.976 118 184.056 118H153.216V40.36H184.056ZM182.136 104.08V54.16C182.136 53.52 181.896 52.96 181.416 52.48C181.016 52 180.496 51.76 179.856 51.76H170.016V106.48H179.856C180.496 106.48 181.016 106.24 181.416 105.76C181.896 105.28 182.136 104.72 182.136 104.08ZM225.858 87.52V118H209.058V40.36H225.858V72.88H239.178V40.36H255.978V118H239.178V87.52H225.858ZM310.381 37.12H323.221L289.261 126.64H276.421L310.381 37.12ZM320.083 67.36V53.2L360.763 75.16V87.4L320.083 109.36V95.44L347.683 81.4L320.083 67.36Z" fill="#2E93B0"/>
</svg>
