<svg width="1004" height="290" viewBox="0 0 1004 290" fill="none" xmlns="http://www.w3.org/2000/svg">
<path d="M194.095 96V131.4L125.095 166.5L194.095 201.6V236.4L92.3945 181.5V150.9L194.095 96ZM373.837 114.9H333.937V99.6C333.937 98 333.337 96.6 332.137 95.4C331.137 94.2 329.837 93.6 328.237 93.6H311.737C310.137 93.6 308.737 94.2 307.537 95.4C306.537 96.6 306.037 98 306.037 99.6V134.1C306.037 135.7 306.537 137.1 307.537 138.3C308.737 139.5 310.137 140.1 311.737 140.1H338.737C363.537 140.5 375.937 153.7 375.937 179.7V221.4C375.937 247.8 363.537 261 338.737 261H303.337C278.537 261 266.137 247.8 266.137 221.4V201.3H306.037V222.9C306.037 224.5 306.537 225.9 307.537 227.1C308.737 228.3 310.137 228.9 311.737 228.9H330.337C331.937 228.9 333.237 228.3 334.237 227.1C335.437 225.9 336.037 224.5 336.037 222.9V184.8C336.037 183.2 335.437 181.8 334.237 180.6C333.237 179.4 331.937 178.8 330.337 178.8H303.337C278.537 178.8 266.137 165.6 266.137 139.2V100.5C266.137 74.1 278.537 60.9 303.337 60.9H336.637C361.437 60.9 373.837 74.1 373.837 100.5V114.9ZM474.639 63.9C499.439 63.9 511.839 77.1 511.839 103.5V218.4C511.839 244.8 499.439 258 474.639 258H397.539V63.9H474.639ZM469.839 223.2V98.4C469.839 96.8 469.239 95.4 468.039 94.2C467.039 93 465.739 92.4 464.139 92.4H439.539V229.2H464.139C465.739 229.2 467.039 228.6 468.039 227.4C469.239 226.2 469.839 224.8 469.839 223.2ZM579.145 181.8V258H537.145V63.9H579.145V145.2H612.445V63.9H654.445V258H612.445V181.8H579.145ZM790.452 55.8H822.552L737.652 279.6H705.552L790.452 55.8ZM814.708 131.4V96L916.408 150.9V181.5L814.708 236.4V201.6L883.708 166.5L814.708 131.4Z" fill="#2E93B0"/>
</svg>
