<svg width="20" height="20" viewBox="0 0 20 20" fill="none" xmlns="http://www.w3.org/2000/svg">
<path fill-rule="evenodd" clip-rule="evenodd" d="M12.6395 19.648C16.8816 18.4901 20 14.6092 20 10C20 4.47715 15.5228 0 10 0C4.47715 0 0 4.47715 0 10C0 14.6832 3.21929 18.6145 7.56561 19.7016C7.5308 19.6903 7.49627 19.6786 7.46204 19.6665V17.3172C6.88677 17.513 5.53899 17.6864 4.75005 16.8138C4.36988 16.3933 4.13627 15.9978 3.91738 15.6272C3.56847 15.0365 3.25698 14.5091 2.44897 14.0451C3.89537 13.7095 4.80484 14.8002 5.07878 15.3875C5.27053 15.779 6.03208 16.4447 7.54422 15.9748C7.54422 14.8338 7.98252 14.4926 8.20167 14.4646C5.98277 14.7478 1.79152 11.7798 4.66788 6.9135C4.53091 6.35416 4.33916 4.73208 4.66788 4.22867C4.9966 3.72527 6.66762 4.62021 7.46204 5.31938C8.25645 4.95581 10.3713 4.44681 12.4751 5.31938C13.79 3.97697 14.9405 4.0329 15.3514 4.22867C15.4884 4.84395 15.6802 6.27586 15.3514 7.0813C16.9951 8.00422 16.9951 14.4646 11.8998 14.5485C12.623 15.6895 12.6942 16.2545 12.6395 16.3943V19.648ZM12.0048 19.799C11.4251 19.9016 10.6728 19.9913 9.89002 19.9994C9.92663 19.9998 9.96329 20 10 20C10.6866 20 11.3571 19.9308 12.0048 19.799Z" fill="white"/>
</svg>
