<svg width="20" height="20" viewBox="0 0 20 20" fill="none" xmlns="http://www.w3.org/2000/svg">
<path fill-rule="evenodd" clip-rule="evenodd" d="M10 20C15.5228 20 20 15.5228 20 10C20 4.47715 15.5228 0 10 0C4.47715 0 0 4.47715 0 10C0 15.5228 4.47715 20 10 20ZM6.1 7.4C6.81797 7.4 7.4 6.81797 7.4 6.1C7.4 5.38203 6.81797 4.8 6.1 4.8C5.38203 4.8 4.8 5.38203 4.8 6.1C4.8 6.81797 5.38203 7.4 6.1 7.4ZM4.80001 8.4H7.20001V15.2H4.80001V8.4ZM8.40001 8.4V15.2H10.6V11C10.6667 10.6667 11.08 10 12.2 10C12.84 10.16 13 11 13 11.4V15.2H15.2V11C15.2 10 14.72 8 12.8 8C11 8.2 10.6 8.93333 10.6 9.2V8.2H8.40001V8.4Z" fill="white"/>
</svg>
