<svg width="23" height="15" viewBox="0 0 23 15" fill="none" xmlns="http://www.w3.org/2000/svg">
<path d="M20.6411 0H2.27242C1.01934 0 0 1.0193 0 2.27242V12.7276C0 13.9807 1.01934 15 2.27242 15H20.6411C21.8941 15 22.9134 13.9807 22.9134 12.7276V2.27242C22.9135 1.0193 21.8942 0 20.6411 0ZM21.3986 2.27242V12.7276C21.3986 12.8471 21.3649 12.9562 21.3153 13.0568L15.9601 7.70116L21.3971 2.26425C21.3971 2.26727 21.3986 2.26945 21.3986 2.27242ZM1.51495 12.7275V2.27242C1.51495 2.26945 1.51648 2.26731 1.51648 2.26429L6.95339 7.70121L1.59783 13.0567C1.54861 12.9562 1.51495 12.8471 1.51495 12.7275ZM11.6905 9.82867C11.5656 9.95362 11.348 9.95362 11.223 9.82867L2.90968 1.51495H20.0042L11.6905 9.82867ZM8.02451 8.77237L10.1519 10.8998C10.5007 11.2485 10.9641 11.4405 11.4568 11.4405C11.9494 11.4405 12.4129 11.2485 12.7617 10.8998L14.8891 8.77237L19.6014 13.4851H3.31177L8.02451 8.77237Z" fill="white"/>
</svg>
