<svg width="125" height="263" viewBox="0 0 125 263" fill="#7c3aed" xmlns="http://www.w3.org/2000/svg">
  <path fill-rule="#7c3aed" clip-rule="#7c3aed" d="M94 41.5C94 49.5081 87.732 56 80 56C77.45 56 75.0592 55.2939 73 54.0602C56.6667 66.0401 23.6 90.7 22 93.5C20.4 96.3 22.6667 99 24 100L34 106.5L113 46V25L103 32.5C101.167 33.1667 96.9 33.6 94.5 30C92.1 26.4 95.1667 22.5 97 21L125 0V45C125 49.8 120.667 55.3333 118.5 57.5L45 113.5L90.5 142L80.5 150L15.5 109C13.3333 107.333 9 102.3 9 95.5C9 88.7 14.6667 83 17.5 81L66.3 44.5C66.1034 43.532 66 42.5285 66 41.5C66 33.4919 72.268 27 80 27C87.732 27 94 33.4919 94 41.5ZM80.5 49C84.6421 49 88 45.6421 88 41.5C88 37.3579 84.6421 34 80.5 34C76.3579 34 73 37.3579 73 41.5C73 45.6421 76.3579 49 80.5 49Z" fill="#7c3aed" />
  <path fill-rule="#7c3aed" clip-rule="#7c3aed" d="M31 221.5C31 213.492 37.268 207 45 207C47.55 207 49.9408 207.706 52 208.94C68.3333 196.96 101.4 172.3 103 169.5C104.6 166.7 102.333 164 101 163L91 156.5L12 217V238L22 230.5C23.8333 229.833 28.1 229.4 30.5 233C32.9 236.6 29.8333 240.5 28 242L0 263V218C0 213.2 4.33334 207.667 6.5 205.5L80 149.5L34.5 121L44.5 113L109.5 154C111.667 155.667 116 160.7 116 167.5C116 174.3 110.333 180 107.5 182L58.7 218.5C58.8966 219.468 59 220.471 59 221.5C59 229.508 52.732 236 45 236C37.268 236 31 229.508 31 221.5ZM44.5 214C40.3579 214 37 217.358 37 221.5C37 225.642 40.3579 229 44.5 229C48.6421 229 52 225.642 52 221.5C52 217.358 48.6421 214 44.5 214Z" fill="#7c3aed" />
  <defs>
    <linearGradient id="paint0_linear_1006_49" x1="67" y1="0" x2="67" y2="150" gradientUnits="userSpaceOnUse">
      <stop stop-color="#6EE7B7" stop-opacity="0.47" />
      <stop offset="1" stop-color="#6EE7B7" />
    </linearGradient>
    <linearGradient id="paint1_linear_1006_49" x1="58" y1="263" x2="58" y2="113" gradientUnits="userSpaceOnUse">
      <stop stop-color="#6EE7B7" stop-opacity="0.47" />
      <stop offset="1" stop-color="#6EE7B7" />
    </linearGradient>
  </defs>
</svg>